<svg xmlns="http://www.w3.org/2000/svg" width="1665.281" height="554.719" viewBox="0 0 1665.281 554.719">
  <g id="mtk-logo" transform="translate(-1135.901 -204.781)">
    <path id="União_3" data-name="União 3" d="M341.3,553.719c-20.022-20.821-41.206-43.855-58.634-67.045-18.146-24.143-32.022-44.611-8.352-72.413,6.737-7.914,26.878-17.37,21.973-29.266-1.636-3.97-19.927-25.361-23.981-29.235-1.376-1.313-8.594-7.266-9.889-5.687-2.971,21.427-4.352,50.5-13.267,70.215-3.128,6.92-6.69,12.476-14.385,6.023-12.643-17.888-31.27-34.082-43.861-51.53-17.317-23.994,14.71-34.333,27.465-50.381a136.376,136.376,0,0,0-50.422-5.5c-6.088.442-25.866,7.842-28.273.625-2.178-6.528,4.586-14.195,6.71-20.356,5.635-16.36,11.6-34.492,8.806-51.97-9.533-5.971-24.091-1.35-37.423,3.271-10.718,3.715-20.644,7.431-26.53,5.643-7.581-2.3-39.047-48.5-47.991-56.581-5.009-13.668,14.11-22.117,21.761-33.111,3.017-4.336,7.088-8.824,6.587-14.513H4.624c-2.733,0-7.1-9.155-2.849-12.022L52.718,93.55c13.426-4.059,22.2,12.541,29.728,20.494,1.466,1.548,1.264,1.666,3.807,1.176,5.059-22.845,13.7-54.885,28.618-73.227,5.241-6.441,50.936-40.232,56.868-40.569a6.652,6.652,0,0,1,4.456.89c1.189.746,10.686,19.189,14.612,23.963,5.072,6.17,26.4,25.428,33.953,24.872,2.712.041,3.185-1.247,4.238-3.284,5.63-10.873.549-43.032,9.55-47.322L448.261,0c6.856,2.011,5.847,25.472,7.054,33.31.5,3.277,2.224,17.351,4.558,17.832,16.683-3.7,33.294-18.265,42.557-32.572,5.715-8.831,4.594-20.612,16.938-16.278,3.56,1.249,49.172,34.3,52.119,37.772,15.355,18.116,23.419,52.732,30.365,75.15,1.111.86,4.656-5.031,9.91-10.922,5.911-6.627,13.986-13.253,23.2-10.269,10.049,3.256,36.163,37.22,48.414,43.313,3.567,2.359,3.979,14.576.1,14.576H617.425c-5.249,0,1.092,9.382,1.991,10.855,5,8.176,24.18,23.609,25.463,27.758,1.011,3.267,1.646,5.4-.387,8.616l-46.755,56c-10.509,4.989-32.224-8-44.725-9.458-25.187-2.939-23.726,2.671-20.368,24.034a151.168,151.168,0,0,0,6.766,26.263c1.9,5.405,8.376,14.891,8.949,18.752,2.053,13.823-23.037,4.6-30.038,4.171-17.328-1.062-33.889.312-50.422,5.5-1.873,2.4,48.373,31.9,32.018,45.77L453.1,426.083c-3.145,2.845-6.531,3.332-10.423,1.688-9.62-4.062-16.5-65.9-18.836-77.7-3.155-.814-3.669,1.3-5.5,2.728-5.473,4.247-28.923,31.335-29.4,36.845-.557,6.434,21.278,21.2,26.708,28.259,21.712,28.209,3.95,49.416-13.855,72.466C385,512.111,364.788,532.877,346.8,553.719ZM360.546,463.8c-4,19.171-6.646,39.172-6.386,58.728,14.765-16.712,54.574-54.9,56.482-76.674,1.422-16.237-17.379-31.056-29.923-38.586C374.721,407.739,362.24,455.689,360.546,463.8Zm-54.723-56.666c-34.1,23.324-36.905,36.478-12.957,69.336,11.717,16.075,25.934,30.487,38.341,46.021,2.624-1.849,2.851-3.247,2.823-6.313-.209-24.017-8.577-63.4-16.553-86.333-1.495-4.3-7.093-22.726-11.427-22.728A1.489,1.489,0,0,0,305.824,407.135Zm-16.832-97.417c28.48,2.777,54.622,27.853,50.31,57.618-1.862,12.856-16.841,21.5-16.456,34.948.231,8.043,9.214,26.482,12.027,35.851,1.275,4.245,7.376,34.93,9.177,34.875,2.081-8.429,3.266-17.3,5.492-25.717,4.146-15.689,16.841-38.544,12.91-53.259C359.8,384.09,348.539,378,346.967,365.5c-3.6-28.633,23.774-52.55,50.486-55.6a85.5,85.5,0,0,1,11.385-.014c6.608.25,13.526.5,16.862-1.094,4.776-2.284,6.43-13.792,8.836-18.685,17.213-34.983,45.307-51.994,82.941-60.168,6.116-29.892,19.008-56.222,40.316-78-38.243-2.523-69.36-14.749-91.393-47.147-6.73-9.9-10.409-20.911-16.825-30.88a159.3,159.3,0,0,0-19.822.595c-7.767.556-15.547,1.112-23.3.337-25.8-2.579-49.253-20.623-62.4-42.145-15.575,21.27-36.776,39.469-64.232,42.147-7.319.713-14.638.177-21.939-.359a144.363,144.363,0,0,0-19.338-.556c-9.833,14.313-15.8,30.91-27.569,43.988-20.817,23.134-50.534,31.453-80.666,34.024,7.852,11.758,18.356,22.019,24.843,34.761,7,13.739,9.4,29.132,15.569,43.142,30.217,8.036,60.858,21.558,76.646,49.95,5.5,9.886,7.112,20.261,13.179,29.021,5.474,1.361,11.122,1.117,16.752.874,2.192-.095,4.382-.19,6.558-.19C285.576,309.492,287.291,309.552,288.992,309.718Zm-87.153,52.241c.009,2.792,27.429,35.994,31.537,40.068,1.618,1.607,1.589,4,5.16,3.072,3.357-11.518,15.567-64.643,5.548-70.666a7.444,7.444,0,0,0-3.891-.966C228.227,333.465,205.842,353.424,201.839,361.958Zm238.427-23.935c-3.028,5.031-.606,24.188.321,31.091,1.62,12.073,6.093,23.8,7.135,35.981,3.216.652,4.531-1.653,6.441-3.631,4.008-4.156,31.46-36.952,31.462-39.477-3.735-8.441-25.2-27.94-37.944-27.941A8.082,8.082,0,0,0,440.266,338.024Zm-174.812-13.35c-1.782.556-3.538,2.275-3.047,4.271,21.558,14.06,35.563,33.774,50.453,54.112,25.87-20.675,4.932-53.5-22.841-57.856a125.7,125.7,0,0,0-16.78-1.267A29.668,29.668,0,0,0,265.454,324.674Zm132.282.182c-28.4,4.112-49.234,38.759-22.479,58.192,12.641-22.209,31.349-39.355,50.4-55.919.048-2.352-7.013-2.994-14.12-2.994A125.5,125.5,0,0,0,397.736,324.856Zm109.641-77.594c-25.844,1.684-67.385,39.878-63.324,67.947,16.408-2.64,31.851-9.787,48.642-10.984,10.264-.732,20.2,1.017,30.352,1.039,5.385-7.713-1.825-15.242-3.279-22.668-1.26-6.448-2.166-32.178-3.136-33.556-1.113-1.581-3.633-1.924-6-1.924C509.443,247.115,508.292,247.2,507.377,247.262ZM197.035,304.432c16.149,1.427,31.1,8.5,47.012,10.771-1.28-34.368-39.349-68.652-73.389-67.892,1.788,19.734-5.616,37.816-9.009,56.7,6.336,1.263,12.875.891,19.568.52,3.188-.177,6.412-.354,9.665-.354C192.923,304.18,194.974,304.249,197.035,304.432ZM95.349,156.4c-2.07,19.13-1,46.87,2.156,65.92.44,2.659,2.722,14.966,3.678,15.583,17.1-.134,33.494-9.25,51.147-7.091-.58-26.571-16.835-55.18-37.665-71.519-3.965-3.11-10.47-8.486-14.849-8.486C97.509,150.809,95.793,152.3,95.349,156.4ZM549.328,231.02c7.135,1.254,33.109,9.788,36.928,5.3,4.581-5.388,7.13-62.5,6.475-72.551-.3-4.658-2.005-9.022-1.919-13.7-25.8,4.676-55.7,50.079-56.8,74.558-.3,6.709,4.442,6.481,9.524,6.253.92-.041,1.851-.082,2.765-.082A17.584,17.584,0,0,1,549.328,231.02ZM605.5,172.094V218.88c0,.327,2.915,3.247,3.634,2.754L627.537,195c-1.126-2.748-17.177-23.19-21.363-23.19A.838.838,0,0,0,605.5,172.094ZM59.011,195.35l21.755,26.283V172.094C76.1,176.179,59.474,190.12,59.011,195.35Zm558.414-58.115h41.282c.546-3.437-2.387-5.3-4.541-7.385-2.842-2.756-22.413-20.081-23.992-20.233-.153-.015-.31-.022-.466-.022C620.056,109.592,605.076,137.235,617.425,137.235ZM32.135,131.719c-1.417,1.848-3.539,2.313-2.741,5.515H68.84a25.262,25.262,0,0,0,5.594-3.676C78.032,127.9,63,109.886,57.88,109.746h-.054C52.934,109.744,35.529,127.284,32.135,131.719ZM517.484,24.378c-4.249,1.965-16.628,19.51-23.026,24.75C488.336,54.143,466.2,64.364,465.1,69.147c-.845,3.7,5.257,14.728,7.345,18.582,17.934,33.119,51.42,50.584,89.008,47.652L519.243,108.82c-10.9-9.589-18.773-20.478-15.672-35.909,6.7-33.384,50.381-27.217,46.885,6.537-.767,7.387-7.716,23.4-16.06,15.134-5.335-5.284,3.33-14.841,2.765-20.385-1.869-18.294-32.045-5.057-15.177,17.2,7.409,9.775,49.288,34.429,60.985,36.309,2.328.374,5.238.3,5.625-2.321.374-2.528-7.169-30.249-8.72-35-4.024-12.327-13.337-34.693-22.269-43.782-2.642-2.689-30.1-21.521-32.777-22.342a13.272,13.272,0,0,0-3.834-.807A8.181,8.181,0,0,0,517.484,24.378ZM169.7,107.827l-44.891,27.554c36.1,2.75,68.964-12.475,87.693-43.462,18.448-30.523,6.484-23.681-14.92-39.393a135.856,135.856,0,0,1-11.6-9.5c-8.625-8.554-12.493-24.845-27-17.443-5.008,2.556-23.587,15.869-27.811,19.876-18.644,17.685-28.523,57.784-32.054,82.6,3.7,3.882,48.722-21.85,54.877-26.749,11.981-9.532,23.747-21.543,9.931-35.393-29.65-1.6,2.947,26.435-17.789,30.688-16.289-12.274-12.608-42.287,9.057-45.485a30.95,30.95,0,0,1,4.515-.343C187.678,50.768,191.207,92.68,169.7,107.827ZM354.13,18.793C359.471,34.137,372.421,47,387.122,53.8c3.055,1.412,15.279,6.377,17.474,6.377h34.86c1.157,0,4.383-4.4,4.583-6.451.316-3.242-5.526-34.151-7.2-36.356-.715-.941-5.414-2.894-6.552-3.062-11.4-1.7-24.82-.951-38.267-.208-12.185.674-24.391,1.348-35.122.208ZM244.355,57.139l2.455,3.037H283.5c6.046,0,28.015-11.894,33.022-16.517,3.53-3.256,15.6-19.535,16.643-23.769.6-2.422.059-5.583-1.961-5.583h-73.39C244.9,14.307,244.039,47.4,244.355,57.139Zm40.067,87.434V253.74c1.009,4.621,6.192,4.9,7.33,8.239H267.918c3.2-4.125,7.92-4.948,7.358-11.88-2.725-37.8,3.528-80.32.055-117.534-.252-2.693-.158-5.263-1.4-7.775-1.86-3.761-5.665-2.747-6.014-5.884l23.64.194,47.927,117.207,51.35-117.419h25.687c-.337,3.1-4.134,2.26-6.358,5.568-1.724,2.561-2.462,6.911-2.814,10.029-2.941,25.974-2.156,81.6-.079,108.324.33,4.257.215,8.486,2.286,12.39,2.383,4.487,5.833,3.369,6.965,6.8H385.331l7.339-8.257v-116.5L337.605,263.818Z" transform="translate(1136.472 205.281)" fill="#fff" stroke="rgba(0,0,0,0)" stroke-miterlimit="10" stroke-width="1"></path>
    <path id="União_2" data-name="União 2" d="M341.658,444.082c-3.568-.273-7.036-.544-9.579-.076V402.724c0-.557-2.323-1.407-1.834-2.752h25.686l-.881,3.637L337.575,401.8l0,16.529,13.8-1.809.892,4.545c-18.731-3.9-14.558,4.332-14.7,19.283,1.625-.033,3.219.031,4.781.095,5.594.229,10.761.459,15.392-3.774.766,6.418-3.862,7.745-9.678,7.745C346.018,444.411,343.82,444.247,341.658,444.082Zm188.708-.049c-3.862-.2-7.353-.391-9.31-.045-.908-.657,1.835-2.341,1.835-2.733v-38.53c0-.557-2.323-1.407-1.835-2.752h25.687c-.116,3.091,1.249,3.928-2.316,3.268-6.1-1.127-11.6-2.189-17.874-1.44l.807,14.8c2.121,3.022,11.806,2.385,14.83-.083l.892,4.547-16.259,1.2-.272,18.085c6.2.732,12.142-.436,18.25-1.054,1.321-.133,5.772-2.011,3.758,1.934-1.256,2.459-5.876,3.041-11.079,3.041C535.143,444.267,532.688,444.15,530.366,444.032Zm-238.1-11.888c-4.455-6.54-8.241-13.081-9.7-11.984-2.759,8.105-2.5,15.712-.03,23.833h-7.326c2.648-13.751,3.282-30.369-.005-44h7.339l-.9,16.512,21.083-16.512-14.42,17.1,18.089,26.9a3.623,3.623,0,0,1-1.363.262C301.08,444.25,296.386,438.2,292.262,432.144ZM801.347,398.5c30.038-4.122,35.181,41.2,6.719,45.4a31.5,31.5,0,0,1-4.591.349C775.3,444.243,774.193,402.223,801.347,398.5Zm-11.419,10.723c-12.981,20.718,12.447,43.373,27.785,26.884,12.919-13.886-.685-35.323-14.6-35.325C798.418,400.777,793.688,403.219,789.928,409.219ZM67.887,443.994c5.486-11.693,8.3-28.939,14.235-39.85,1.162-2.136-.057-3.086,4.077-2.332l14.7,42.182-5.528-1.218c-2.613-9.769-2.62-20.566-15.593-19.122-4.552.509-5.8,11.426-7.759,16.319-.934,2.335.447,4.244-2.144,4.244A11.533,11.533,0,0,1,67.887,443.994Zm103.649-5.489c-4.17-8.759,2.523-28.782-2.748-38.515h7.339c-2.343,7.842-4.1,32.528.978,38.441,6.465,7.534,19.2,2.116,19.2-6.351V402.724c0-.412-2.707-2.007-1.834-2.733l3.669-.019c-1.508,10.366,2.053,26.224,0,35.778-1.2,5.582-7.964,8.442-14.46,8.442C178.43,444.192,173.352,442.321,171.536,438.505ZM.12,441.415A164.046,164.046,0,0,0,0,399.983c3.906-.481,4.883-.226,7.121,2.952,2.832,4.021,10.533,30.083,12.155,30.08,3.258.441,3.513-2.495,4.639-4.533,4.484-8.11,8.038-19.4,11.163-28.266l7.114-.244v44.033h-5.5V407.311L19.248,442.162,3.662,409.145v34.86c-1.137.014-1.977.16-2.564.16C.083,444.165-.171,443.728.12,441.415Zm746.609-39.608-12.83,1.829-.013-3.664h29.356l-.019,3.668c-2.768-2.392-12.825-2.691-12.825.92v31.19c0,1.325,3.229,5.229,1.826,8.247l-5.5.01Zm-117.423,42.2V399.972l23.843.01-.872,3.627L634.8,401.8l0,16.529,13.8-1.809.892,4.545-14.684-.915-.013,20.2,17.177.032,3-3.7.019,7.331ZM444.022,399.985l18.323,44-7.231-.083-4.666-18.268c-17.809-8.939-12.208,10.772-21.11,18.37Zm-62.405,44.021V399.972h5.5v40.364l17.167.042,3-3.7.019,7.331Zm-253.193,0v-42.2L115.6,405.476l-.018-5.5h31.19l-.013,3.664-12.83-1.829v42.2Zm575.3-3.784-21.214-32.911v36.694h-3.669V399.972c3.2-.449,4.042-.132,6.363,1.894,7.673,6.7,12.85,26.926,22.993,32.967V402.724c0-.389-2.749-2.09-1.835-2.733l4.577-.028c2.575.314-.908,2.343-.908,2.761v41.281Zm147.612,1.885-.012-5.441c7.847,6.671,19.562,7.5,21.944-4.641-.321-10.714-29.39-9.853-22.451-26.03,3.715-8.66,14.691-8.324,22.508-6l-.882,3.616c-6.036-4-18.383-2.632-17.559,6.37.9,9.812,21.029,7.126,22.259,20.235.986,10.483-6.03,13.629-14.112,13.629A45.436,45.436,0,0,1,851.339,442.107Zm-627.49-5.441c7.484,7.93,23.857,6.328,22.055-6.317-1.162-8.155-16.06-7.483-20.355-14.656-8.835-14.753,11.033-20.4,22.135-15.7-.1,3.084,1.224,3.917-2.314,3.253-8.065-1.51-16.03-4.73-17.461,6.536.968,10.7,22.184,7.2,23.441,20.655.924,9.9-7.137,13.179-14.878,13.179C228.392,443.613,220.66,440.037,223.849,436.667ZM568.769,400.88l7.13-.695c1.5,1.258,7.025,30.362,13.023,32.81,2.574-9.449,5.918-20.605,10.212-29.339,1.29-2.625-.417-4.614,4.486-3.666l-17.439,42.171ZM44.026,53.207V299.979c0,2.961,5.411,17.3,7.585,19.936,4.533,5.5,12.276,3.34,12.6,10.337H9.167l-.011-5.494c14.3,1.189,16.078-16,18.339-26.633-4.777-86.045,6.416-179.035.1-264.263-.84-11.336-4.154-29.381-18.437-28.37L9.167,0H59.621L177.94,271.537,291.715,0h55.959l1.86,3.677c-12.786,2.516-17.233,12.756-19.3,24.756,5.609,87.178-7.449,183.7-.059,269.776.628,7.315,3.71,20.607,10.06,24.8,3.708,2.45,10.823.966,10.186,7.244H278.872l-.011-5.494c8.932,3.773,18.358-15.617,18.358-21.11V36.695L168.768,335.745ZM850.392,330.252c-9.724,0-28.791-10.235-35.758-17.45L707.259,152.258c-2.947-.01-21.58,17.9-21.171,22.865,4,40.622-5.1,90.74.257,130.2a31.115,31.115,0,0,0,4.522,11.991c4.513,6.71,12.163,6.258,13.663,12.94H632.975c-.679-6.439,7.231-5.185,10.51-7.859,5.245-4.279,7.45-17.519,7.916-24.17,6.162-87.909-4.78-182.961-.074-271.625a31.34,31.34,0,0,0-4.689-13.658C642.128,6.229,634.477,6.683,632.975,0H704.53l.012,5.494c-7.82-2.815-18.358,11.981-18.358,17.44v122.01l126.6-123.828c1.885-2.809,3.886-6.743,2.914-10.188C814.152,5.455,807.071,5.754,807.276,0h60.546l.015,5.5c-8.262-.914-15.691,3.468-22.076,8.218L732.028,127.485,843.211,297.068c6.927,8.617,13.488,16.971,23.347,22.522,6.111,3.444,16.96,4.3,17.777,10.662Zm-393.551,0-.011-5.494c8.229,3.551,18.358-14.344,18.358-19.275V18.347H410.055c-.675,0-10.582,5.559-11.829,6.519-8.465,6.53-13.142,19.722-12.949,30.167-1.71.787-5.5-1.626-5.5-2.743V0H605.454V55.042l-5.5.014c.2-8.84-3.291-20.047-9.2-26.6-2.1-2.326-13.811-10.108-15.578-10.108H510.966L508.214,21.1V299.979c0,4.547,6.95,21.344,11.1,23.764,3.134,1.829,9.889.279,9.086,6.51Z" transform="translate(1916.279 245.275)" fill="#fff" stroke="rgba(0,0,0,0)" stroke-miterlimit="10" stroke-width="1"></path>
  </g>
</svg>